<svg id="Layer_1" data-name="Layer 1" xmlns="http://www.w3.org/2000/svg" viewBox="0 0 1001 278.64">
    <defs>
        <style>.cls-1{fill:#000;}</style>
    </defs>
    <title>HWS-interim-logo</title>
    <path class="cls-1" d="M147.11,109a31.61,31.61,0,1,0,31.61,31.61A31.65,31.65,0,0,0,147.11,109Zm0,52.53A20.92,20.92,0,1,1,168,140.64,20.95,20.95,0,0,1,147.11,161.56Z"/><path class="cls-1" d="M147.11,207.78a5.35,5.35,0,0,0,0-10.69,56.45,56.45,0,1,1,56.44-56.45,5.35,5.35,0,1,0,10.69,0,67.14,67.14,0,1,0-67.13,67.14Z"/><path class="cls-1" d="M147.11,91.26a49.38,49.38,0,1,0,49.37,49.38A49.43,49.43,0,0,0,147.11,91.26Zm0,88.06a38.68,38.68,0,1,1,38.68-38.68A38.73,38.73,0,0,1,147.11,179.32Z"/><path class="cls-1" d="M147.11,243.3A102.68,102.68,0,0,0,195.42,50a5.35,5.35,0,0,0-7.64,6.27,5.31,5.31,0,0,0,2.6,3.16,92,92,0,1,1-43.27-10.79,5.35,5.35,0,0,0,0-10.69,102,102,0,0,0-72.6,30.07h0a102.66,102.66,0,0,0,72.6,175.25Z"/><path class="cls-1" d="M232.26,55.49A120.5,120.5,0,0,0,87.57,35.94h0a121.24,121.24,0,0,0-43,41.45A5.35,5.35,0,0,0,53.71,83a109.63,109.63,0,0,1,93.4-52.1A109.73,109.73,0,0,1,224.7,218.23,109.74,109.74,0,0,1,37.37,140.64a5.27,5.27,0,0,0-4.48-5.28,8.4,8.4,0,0,0-1-.06,5.19,5.19,0,0,0-3.37,1,6.25,6.25,0,0,0-1.81,4.44c-1.28,21.68,8.69,45,8.79,45.18A120.45,120.45,0,1,0,232.26,55.49Z"/><path class="cls-1" d="M62.21,140.64a84.9,84.9,0,1,0,84.9-84.9A85,85,0,0,0,62.21,140.64Zm153.32-28.77A74.26,74.26,0,1,1,195.08,84,74.67,74.67,0,0,1,215.53,111.87Z"/><path class="cls-1" d="M300.11,29.79a1.44,1.44,0,0,0-1.58-1.59h-3.1v-8h9.22c3.46,0,4.9,1.51,4.9,4.9V41.88h22.54V25.11c0-3.39,1.51-4.9,4.89-4.9h9.22v8h-3.1a1.44,1.44,0,0,0-1.58,1.59V71.33h-9.43V49.88H309.55V71.33h-9.44Z"/><path class="cls-1" d="M369.24,33.75c10.51,0,16.27,7.7,16.27,17.42,0,1.08-.22,3.39-.22,3.39H360c.72,6.48,5.47,9.86,11,9.86a16.68,16.68,0,0,0,10.29-4.1l3.82,6.33a22.33,22.33,0,0,1-14.76,5.55c-12.17,0-19.73-8.79-19.73-19.23C350.59,41.67,358.22,33.75,369.24,33.75Zm6.91,14.47c-.15-4.39-3.17-7.42-6.91-7.42-4.68,0-8,2.81-9,7.42Z"/><path class="cls-1" d="M412.58,48.29h1.15V48c0-5.25-2.09-7.2-6.77-7.2-1.65,0-4.89.44-4.89,2.45v2h-8.5V41.31c0-6.84,9.65-7.56,13.47-7.56,12.24,0,15.84,6.41,15.84,14.61V62.05a1.44,1.44,0,0,0,1.58,1.58h2.88v7.7h-8.21c-3.38,0-4.68-1.87-4.68-4,0-.93.07-1.58.07-1.58h-.14a12,12,0,0,1-11.09,6.48c-6.55,0-12.53-4.11-12.53-11.45C390.76,49.23,406.6,48.29,412.58,48.29Zm-7.06,16.78c4.9,0,8.36-5.18,8.36-9.65v-.86h-1.59c-4.75,0-12.31.65-12.31,5.76C400,62.77,401.78,65.07,405.52,65.07Z"/><path class="cls-1" d="M434.47,29.57A1.41,1.41,0,0,0,432.88,28H430V20.21h8.72c3.38,0,4.89,1.51,4.89,4.9V62.05a1.44,1.44,0,0,0,1.59,1.58H448v7.7h-8.64c-3.45,0-4.89-1.44-4.89-4.89Z"/><path class="cls-1" d="M455.78,41.88H451V34.61h5v-10h8.93v10h8.36v7.27h-8.36V56.72c0,6.05,4.75,6.91,7.28,6.91a8.63,8.63,0,0,0,1.65-.14v8a17.28,17.28,0,0,1-2.81.21c-5.11,0-15.26-1.51-15.26-13.82Z"/><path class="cls-1" d="M481.55,29.57A1.4,1.4,0,0,0,480,28h-2.88V20.21h8.71c3.39,0,4.9,1.51,4.9,4.82V37.92c0,1.8-.14,3.1-.14,3.1h.14a14,14,0,0,1,12.6-7.27c8.21,0,12.82,4.25,12.82,14V62.05a1.44,1.44,0,0,0,1.58,1.58h2.88v7.7h-8.71c-3.39,0-4.83-1.44-4.83-4.89V49.59c0-4.47-1.22-7.49-5.83-7.49a10.34,10.34,0,0,0-9.94,7.63,16.64,16.64,0,0,0-.57,4.75V71.33h-9.15Z"/><path class="cls-1" d="M530.08,78.75c2.52,0,4.75-1.51,6-4.68l1.22-2.81L525.11,43.68a1.71,1.71,0,0,0-1.94-1.29h-1.08V34.61h6c2.59,0,3.89.94,4.82,3.46l7.2,18.36a36.2,36.2,0,0,1,1.3,4.9h.14a44.45,44.45,0,0,1,1.23-4.9l6.26-18.36a4.55,4.55,0,0,1,4.9-3.46h6.19v7.78H559.1A1.83,1.83,0,0,0,557,43.68l-13.17,33.2c-2.6,6.62-7.78,9.58-13.25,9.58a13.59,13.59,0,0,1-9.29-3.75l3.53-6.48A7.9,7.9,0,0,0,530.08,78.75Z"/><path class="cls-1" d="M583.29,29.79c-.29-1.23-1.08-1.59-2.3-1.59h-1.37v-8h6.12c3.6,0,5.54.86,6.33,4.18l7,30.46a44.18,44.18,0,0,1,.86,5.4h.15a42.72,42.72,0,0,1,1.08-5.4l9.29-34.5h8l8.78,34.5a34.16,34.16,0,0,1,1,5.4h.15a44.18,44.18,0,0,1,.86-5.4l7.06-30.46c.72-3.32,2.66-4.18,6.26-4.18h6.19v8h-1.36c-1.3,0-2,.36-2.31,1.59L634.41,71.33H623.54l-7.77-28.94a58.92,58.92,0,0,1-1.3-6.34h-.15A55,55,0,0,1,613,42.39l-8.14,28.94H593.88Z"/><path class="cls-1" d="M670.7,48.29h1.15V48c0-5.25-2.09-7.2-6.77-7.2-1.65,0-4.89.44-4.89,2.45v2h-8.5V41.31c0-6.84,9.65-7.56,13.46-7.56,12.24,0,15.85,6.41,15.85,14.61V62.05a1.44,1.44,0,0,0,1.58,1.58h2.88v7.7h-8.21c-3.38,0-4.68-1.87-4.68-4,0-.93.07-1.58.07-1.58h-.14a12,12,0,0,1-11.09,6.48c-6.55,0-12.53-4.11-12.53-11.45C648.88,49.23,664.72,48.29,670.7,48.29Zm-7.06,16.78c4.9,0,8.35-5.18,8.35-9.65v-.86h-1.58c-4.75,0-12.31.65-12.31,5.76C658.1,62.77,659.9,65.07,663.64,65.07Z"/><path class="cls-1" d="M693,41.88h-4.76V34.61h5v-10h8.93v10h8.35v7.27h-8.35V56.72c0,6.05,4.75,6.91,7.27,6.91a8.69,8.69,0,0,0,1.66-.14v8a17.28,17.28,0,0,1-2.81.21c-5.11,0-15.26-1.51-15.26-13.82Z"/><path class="cls-1" d="M733.84,33.75c10.52,0,16.28,7.7,16.28,17.42,0,1.08-.22,3.39-.22,3.39H724.55c.72,6.48,5.48,9.86,11,9.86a16.69,16.69,0,0,0,10.3-4.1l3.81,6.33a22.3,22.3,0,0,1-14.76,5.55c-12.17,0-19.73-8.79-19.73-19.23C715.19,41.67,722.83,33.75,733.84,33.75Zm6.91,14.47c-.14-4.39-3.16-7.42-6.91-7.42-4.68,0-8,2.81-9,7.42Z"/><path class="cls-1" d="M759,44a1.41,1.41,0,0,0-1.58-1.58H754.5V34.61h8.36c3.24,0,4.89,1.37,4.89,4.47v2.16a17.26,17.26,0,0,1-.14,2.3h.14c1.66-5.26,6-9.43,11.67-9.43a12,12,0,0,1,1.65.14v9a16.58,16.58,0,0,0-2.23-.14,10.34,10.34,0,0,0-10,7.7,22.41,22.41,0,0,0-.79,6V71.33H759Z"/><path class="cls-1" d="M787.33,43.68c-.35-1.08-.93-1.29-2-1.29h-1V34.61h6.26c3,0,4.47.94,5.19,3.75l5.4,20.37a32.65,32.65,0,0,1,.72,3.89H802a32.25,32.25,0,0,1,.87-3.89l6.77-24h8.06l6.84,24a24.9,24.9,0,0,1,.79,3.89h.15a30.46,30.46,0,0,1,.72-3.89l5.33-20.37c.72-2.81,2.16-3.75,5.18-3.75H843v7.78h-1a1.76,1.76,0,0,0-2,1.29l-8.78,27.65h-10.3l-6.26-20.95a31.43,31.43,0,0,1-.87-4h-.14s-.36,2-.94,4l-6.19,20.95H796.12Z"/><path class="cls-1" d="M867.55,48.29h1.15V48c0-5.25-2.09-7.2-6.77-7.2-1.66,0-4.9.44-4.9,2.45v2h-8.49V41.31c0-6.84,9.64-7.56,13.46-7.56,12.24,0,15.84,6.41,15.84,14.61V62.05a1.44,1.44,0,0,0,1.59,1.58h2.88v7.7H874.1c-3.39,0-4.68-1.87-4.68-4,0-.93.07-1.58.07-1.58h-.15a11.94,11.94,0,0,1-11.08,6.48c-6.56,0-12.53-4.11-12.53-11.45C845.73,49.23,861.57,48.29,867.55,48.29Zm-7.06,16.78c4.89,0,8.35-5.18,8.35-9.65v-.86h-1.58c-4.76,0-12.32.65-12.32,5.76C854.94,62.77,856.74,65.07,860.49,65.07Z"/><path class="cls-1" d="M891.81,78.75c2.52,0,4.75-1.51,6.05-4.68l1.22-2.81L886.84,43.68a1.72,1.72,0,0,0-2-1.29h-1.08V34.61h6.05c2.6,0,3.89.94,4.83,3.46l7.2,18.36a35.54,35.54,0,0,1,1.29,4.9h.15a43.46,43.46,0,0,1,1.22-4.9l6.27-18.36a4.53,4.53,0,0,1,4.89-3.46h6.2v7.78h-1.08a1.83,1.83,0,0,0-2.09,1.29l-13.18,33.2c-2.59,6.62-7.78,9.58-13.25,9.58A13.59,13.59,0,0,1,883,82.71l3.53-6.48A7.9,7.9,0,0,0,891.81,78.75Z"/><path class="cls-1" d="M928.89,59.67s4.68,5.4,10.94,5.4c2.81,0,5-1.15,5-3.6,0-5.18-19.37-5.11-19.37-17,0-7.35,6.63-10.73,14.26-10.73,5,0,12.89,1.65,12.89,7.63V45.2h-8.07V43.4c0-1.73-2.59-2.6-4.61-2.6-3.24,0-5.47,1.16-5.47,3.32,0,5.76,19.51,4.6,19.51,16.85,0,6.91-6.12,11.23-14.11,11.23a20.12,20.12,0,0,1-15.26-6.55Z"/><path class="cls-1" d="M300.62,144.65s5.26,6,12.38,6c3.89,0,7.35-2.09,7.35-6,0-8.71-24.05-8-24.05-23.9,0-8.28,7.2-14.4,17.06-14.4,6,0,15.2,2.8,15.2,10.08v4.75h-8.5v-2.3c0-2.38-3.38-4-6.77-4-4.32,0-7.49,2.24-7.49,5.48,0,8.71,24.05,7,24.05,23.76,0,8.14-6.26,15-17,15a23.57,23.57,0,0,1-17.57-7.92Z"/><path class="cls-1" d="M338.64,128.88h-4.76v-7.27h5v-10h8.93v10h8.35v7.27h-8.35v14.84c0,6.05,4.75,6.91,7.27,6.91a8.69,8.69,0,0,0,1.66-.14v8a17.28,17.28,0,0,1-2.81.21c-5.11,0-15.26-1.51-15.26-13.82Z"/><path class="cls-1" d="M365.13,131a1.41,1.41,0,0,0-1.58-1.58h-2.88v-7.78H369c3.24,0,4.89,1.37,4.89,4.47v2.16a17.26,17.26,0,0,1-.14,2.3h.14c1.66-5.26,6-9.43,11.67-9.43a12.2,12.2,0,0,1,1.66.14v9a16.84,16.84,0,0,0-2.24-.14,10.35,10.35,0,0,0-10,7.7,22.41,22.41,0,0,0-.79,6v14.54h-9.07Z"/><path class="cls-1" d="M410.85,135.29H412V135c0-5.25-2.09-7.2-6.77-7.2-1.65,0-4.89.44-4.89,2.45v1.95h-8.5v-3.89c0-6.84,9.65-7.56,13.47-7.56,12.24,0,15.84,6.41,15.84,14.61v13.69a1.44,1.44,0,0,0,1.58,1.58h2.88v7.7H417.4c-3.38,0-4.68-1.87-4.68-4a14.31,14.31,0,0,1,.08-1.58h-.15a12,12,0,0,1-11.09,6.48c-6.55,0-12.53-4.11-12.53-11.45C389,136.23,404.88,135.29,410.85,135.29Zm-7.05,16.78c4.89,0,8.35-5.18,8.35-9.65v-.86h-1.59c-4.75,0-12.31.65-12.31,5.76C398.25,149.77,400.05,152.07,403.8,152.07Z"/><path class="cls-1" d="M433.1,128.88h-4.76v-7.27h5v-10h8.93v10h8.35v7.27h-8.35v14.84c0,6.05,4.75,6.91,7.27,6.91a8.69,8.69,0,0,0,1.66-.14v8a17.28,17.28,0,0,1-2.81.21c-5.11,0-15.26-1.51-15.26-13.82Z"/><path class="cls-1" d="M474,120.75c10.52,0,16.28,7.7,16.28,17.42,0,1.08-.22,3.39-.22,3.39H464.71c.72,6.48,5.47,9.86,11,9.86a16.69,16.69,0,0,0,10.3-4.1l3.82,6.33a22.35,22.35,0,0,1-14.77,5.55c-12.16,0-19.72-8.79-19.72-19.23C455.35,128.67,463,120.75,474,120.75Zm6.92,14.47c-.15-4.39-3.17-7.42-6.92-7.42-4.68,0-8,2.81-9,7.42Z"/><path class="cls-1" d="M511.72,120.75c8.5,0,11.31,5.18,11.31,5.18h.14V125c0-1.66,1.15-3.39,4-3.39h8.5v7.78h-2.81a1.4,1.4,0,0,0-1.58,1.44V156.1c0,12.6-9.79,17.36-19.37,17.36a29.33,29.33,0,0,1-13-3.17l2.81-7.2a23.72,23.72,0,0,0,10.16,2.45c5.54,0,10.36-2.38,10.36-9v-1.72c0-.87.08-1.95.08-1.95h-.15c-2.16,3.1-5.33,4.75-10.22,4.75-10.51,0-16.49-8.49-16.49-18.57S501.14,120.75,511.72,120.75Zm10.73,18.36c0-8.35-4.18-10.59-9.14-10.59-5.55,0-8.57,4-8.57,10.23,0,6.41,3.24,11.16,9.14,11.16C518.27,149.91,522.45,147.39,522.45,139.11Z"/><path class="cls-1" d="M546.06,165.75c2.52,0,4.76-1.51,6.05-4.68l1.23-2.81L541.1,130.68a1.73,1.73,0,0,0-2-1.29h-1.08v-7.78h6c2.59,0,3.89.94,4.82,3.46l7.2,18.36a34.65,34.65,0,0,1,1.3,4.9h.15a43.46,43.46,0,0,1,1.22-4.9l6.26-18.36a4.55,4.55,0,0,1,4.9-3.46h6.19v7.78h-1.08a1.84,1.84,0,0,0-2.09,1.29l-13.17,33.2c-2.59,6.62-7.78,9.58-13.25,9.58a13.59,13.59,0,0,1-9.29-3.75l3.53-6.48A7.9,7.9,0,0,0,546.06,165.75Z"/><path class="cls-1" d="M623.47,121.61c0-4-3-6.62-7.42-6.62-4,0-6.7,2.08-6.7,4v2.23h-8.49v-5c0-6.77,8.92-9.86,15.55-9.86,8.93,0,16.56,5.61,16.56,15.12,0,17.28-24.7,18.29-24.7,27.58,0,.93.58,1.29,2,1.29h15a1.44,1.44,0,0,0,1.59-1.58v-3.1h8.49v7.78c0,3.45-1.44,4.89-4.89,4.89H603.74c-4.47,0-5.26-1.94-5.26-6.76C598.48,133.06,623.47,134.07,623.47,121.61Z"/><path class="cls-1" d="M641.1,132.7c0-14.69,4.54-26.35,18.51-26.35S678.12,118,678.12,132.7s-4.54,26.5-18.51,26.5S641.1,147.39,641.1,132.7Zm27.51,0c0-9.94-2-17.79-9-17.79s-9,7.85-9,17.79,2,18,9,18S668.61,142.78,668.61,132.7Z"/><path class="cls-1" d="M685.17,150.34h11V122c0-1.73.07-3.45.07-3.45h-.15a11.58,11.58,0,0,1-2.23,2.88l-4.1,3.88-5.48-5.76,12.82-12.31h8.5v43.13h11v8H685.17Z"/><path class="cls-1" d="M728.87,130.83v-.15a12.37,12.37,0,0,1-5.69-10.22c0-7.27,5.84-14.11,16.42-14.11,9.94,0,16.42,6.12,16.42,14.18,0,7.2-5.54,11.59-5.54,11.59v.15c4.46,2.81,7,6.69,7,11.74,0,7.84-7.13,15.19-18.22,15.19-10.22,0-18.29-6.41-18.29-15.63C721,135.58,728.87,130.83,728.87,130.83Zm10.44,19.87c4.76,0,8.72-2.95,8.72-7.13,0-3.6-3.24-5.33-7.35-7a21.56,21.56,0,0,0-4.61-1.73c-1.72,0-5.54,3.74-5.54,8.21C730.53,147.68,734.42,150.7,739.31,150.7Zm3.32-22.25c1.58,0,4.32-3.53,4.32-7.27,0-3.89-3-6.27-7.35-6.27-4.61,0-7.27,2.6-7.27,5.77,0,3.52,3,5.18,6.91,6.69A13.16,13.16,0,0,0,742.63,128.45Z"/><path class="cls-1" d="M765.09,133.78h21.67v8H765.09Z"/><path class="cls-1" d="M818.8,121.61c0-4-3-6.62-7.41-6.62-4,0-6.7,2.08-6.7,4v2.23h-8.5v-5c0-6.77,8.93-9.86,15.56-9.86,8.92,0,16.56,5.61,16.56,15.12,0,17.28-24.7,18.29-24.7,27.58,0,.93.58,1.29,1.94,1.29h15a1.44,1.44,0,0,0,1.59-1.58v-3.1h8.49v7.78c0,3.45-1.44,4.89-4.89,4.89H799.07c-4.46,0-5.25-1.94-5.25-6.76C793.82,133.06,818.8,134.07,818.8,121.61Z"/><path class="cls-1" d="M836.44,132.7c0-14.69,4.54-26.35,18.51-26.35s18.5,11.66,18.5,26.35-4.53,26.5-18.5,26.5S836.44,147.39,836.44,132.7Zm27.51,0c0-9.94-2-17.79-9-17.79s-9,7.85-9,17.79,2,18,9,18S864,142.78,864,132.7Z"/><path class="cls-1" d="M903.55,121.61c0-4-3-6.62-7.42-6.62-4,0-6.7,2.08-6.7,4v2.23h-8.49v-5c0-6.77,8.93-9.86,15.55-9.86,8.93,0,16.56,5.61,16.56,15.12,0,17.28-24.7,18.29-24.7,27.58,0,.93.58,1.29,1.95,1.29h15a1.44,1.44,0,0,0,1.58-1.58v-3.1h8.5v7.78c0,3.45-1.44,4.89-4.9,4.89H883.82c-4.47,0-5.26-1.94-5.26-6.76C878.56,133.06,903.55,134.07,903.55,121.61Z"/><path class="cls-1" d="M928.46,130.83v-.15a12.37,12.37,0,0,1-5.69-10.22c0-7.27,5.83-14.11,16.42-14.11,9.93,0,16.41,6.12,16.41,14.18,0,7.2-5.54,11.59-5.54,11.59v.15c4.46,2.81,7.06,6.69,7.06,11.74,0,7.84-7.13,15.19-18.22,15.19-10.23,0-18.29-6.41-18.29-15.63C920.61,135.58,928.46,130.83,928.46,130.83ZM938.9,150.7c4.75,0,8.71-2.95,8.71-7.13,0-3.6-3.24-5.33-7.34-7a21.76,21.76,0,0,0-4.61-1.73c-1.73,0-5.55,3.74-5.55,8.21C930.11,147.68,934,150.7,938.9,150.7Zm3.31-22.25c1.59,0,4.32-3.53,4.32-7.27,0-3.89-3-6.27-7.34-6.27-4.61,0-7.28,2.6-7.28,5.77,0,3.52,3,5.18,6.92,6.69A13.09,13.09,0,0,0,942.21,128.45Z"/><path class="cls-1" d="M303.79,226.31h-2.67v-3.53h12.76c5.28,0,9.06,3.57,9.06,9.06s-3.78,9.18-9.06,9.18h-6v10.71h-4.1Zm9.43,11.19c3.4,0,5.49-2.17,5.49-5.66s-2.09-5.53-5.45-5.53h-5.37V237.5Z"/><path class="cls-1" d="M335.65,230.49c6.19,0,11.19,4.55,11.19,10.82a11.18,11.18,0,0,1-22.35,0C324.49,235,329.46,230.49,335.65,230.49Zm0,18.28a7.43,7.43,0,1,0-7.1-7.46A7.16,7.16,0,0,0,335.65,248.77Z"/><path class="cls-1" d="M351.8,235.28a.8.8,0,0,0-.9-.9h-1.68V231H353c1.8,0,2.66.74,2.66,2.42v1.31a12.49,12.49,0,0,1-.08,1.44h.08c1-3,3.37-5.42,6.56-5.42a7.3,7.3,0,0,1,1.07.09v3.93a6,6,0,0,0-1.19-.12c-2.54,0-4.88,1.8-5.82,4.88a12.58,12.58,0,0,0-.49,3.73v8.49h-4Z"/><path class="cls-1" d="M367.83,234.18h-2.71V231h2.79v-5.7h3.9V231h5v3.2h-5v9.51c0,4.14,2.87,4.67,4.38,4.67a5,5,0,0,0,.95-.08v3.53a10.56,10.56,0,0,1-1.4.08c-2.62,0-7.91-.82-7.91-7.75Z"/><path class="cls-1" d="M393.87,226.31H391.2v-3.53H404c5.29,0,9.06,3.57,9.06,9.06S409.24,241,404,241h-6v10.71h-4.1Zm9.43,11.19c3.4,0,5.49-2.17,5.49-5.66s-2.09-5.53-5.45-5.53H398V237.5Z"/><path class="cls-1" d="M417.23,227.08a.8.8,0,0,0-.9-.9h-1.68v-3.4h3.94c1.84,0,2.62.78,2.62,2.54v8.08c0,1-.08,1.72-.08,1.72h.08a8.44,8.44,0,0,1,7.71-4.63c4.88,0,7.09,2.66,7.09,7.95v9a.8.8,0,0,0,.9.9h1.69v3.41h-3.9c-1.84,0-2.62-.78-2.62-2.63v-9.76c0-2.91-.62-5.2-3.94-5.2a6.83,6.83,0,0,0-6.56,5.12,8.32,8.32,0,0,0-.37,2.75v9.72h-4Z"/><path class="cls-1" d="M443.11,235.28a.81.81,0,0,0-.91-.9h-1.68V231h3.9c1.84,0,2.62.78,2.62,2.62v13.82a.8.8,0,0,0,.9.9h1.69v3.41h-3.9c-1.84,0-2.62-.78-2.62-2.63Zm.08-12.5h3.56v4.14h-3.56Z"/><path class="cls-1" d="M454.09,227.08a.8.8,0,0,0-.9-.9h-1.68v-3.4h3.94c1.84,0,2.62.78,2.62,2.62v22a.8.8,0,0,0,.9.9h1.68v3.41h-3.93c-1.85,0-2.63-.78-2.63-2.63Z"/><path class="cls-1" d="M465.08,227.08a.8.8,0,0,0-.9-.9H462.5v-3.4h3.93c1.85,0,2.63.78,2.63,2.62v22a.8.8,0,0,0,.9.9h1.68v3.41h-3.93c-1.85,0-2.63-.78-2.63-2.63Z"/><path class="cls-1" d="M476.36,235.28a.81.81,0,0,0-.91-.9h-1.68V231h3.9c1.84,0,2.62.78,2.62,2.62v13.82a.8.8,0,0,0,.9.9h1.69v3.41H479c-1.84,0-2.62-.78-2.62-2.63Zm.08-12.5H480v4.14h-3.57Z"/><path class="cls-1" d="M487.43,235.28a.81.81,0,0,0-.91-.9h-1.68V231h3.73c1.85,0,2.55.78,2.55,2.09,0,.62,0,1.11,0,1.11h.08s1.72-3.69,6.89-3.69c5.57,0,9.14,4.43,9.14,10.86,0,6.6-4,10.87-9.43,10.87a7.18,7.18,0,0,1-6.36-3.32h-.08s.08.73.08,1.8v9.23h-4Zm9.71,13.53c3.28,0,6-2.7,6-7.42,0-4.51-2.42-7.42-5.86-7.42-3.08,0-6,2.18-6,7.46C491.28,245.12,493.29,248.81,497.14,248.81Z"/><path class="cls-1" d="M526.54,236.23v-.08s-3.73-1.36-3.73-6.4c0-4.47,3.48-7.46,8.69-7.46a16.7,16.7,0,0,1,3.65.45l-1,3.24a11,11,0,0,0-2.18-.29c-3,0-5,1.89-5,4.47,0,1.8.86,4.55,5.33,4.55h5.21V231h4v3.73h3.65v3.53h-3.65v3.85c0,6.44-3.77,10.13-9.84,10.13-5.9,0-10-3.82-10-8.78C521.54,240.45,523.3,237.17,526.54,236.23Zm5,12.26c3.57,0,5.87-2,5.87-6.56v-3.69h-5.17c-4.22,0-6.6,1.92-6.6,5.16C525.68,246.15,527.89,248.49,531.58,248.49Z"/><path class="cls-1" d="M558.68,227.21c-.2-.74-.65-.9-1.39-.9h-.62v-3.53H559c2,0,3.08.41,3.57,2.38l4.47,18.61c.37,1.56.57,3.08.57,3.08h.08s.25-1.48.7-3.08l5.82-20.91h3.69l5.41,20.91c.41,1.6.62,3.08.62,3.08H584a27.76,27.76,0,0,1,.53-3.08l4.56-18.61c.49-2,1.47-2.38,3.52-2.38H595v3.53h-.62c-.73,0-1.19.16-1.39.9l-6.36,24.52h-4.75l-4.92-18.29c-.49-1.89-.82-4-.82-4H576s-.41,2.09-.95,3.94l-5.25,18.33H565Z"/><path class="cls-1" d="M605.38,230.49c5.82,0,8.94,4.34,8.94,9.71,0,.54-.12,1.64-.12,1.64H599.07a6.94,6.94,0,0,0,7.13,6.93,9.54,9.54,0,0,0,6.07-2.42l1.72,2.83a12.11,12.11,0,0,1-8,3,10.58,10.58,0,0,1-11-10.87C595,234.75,599.48,230.49,605.38,230.49Zm4.84,8.44c-.12-3.44-2.3-5.29-4.88-5.29a6,6,0,0,0-6.11,5.29Z"/><path class="cls-1" d="M619.28,245.9a8.79,8.79,0,0,0,6.27,3.08c1.93,0,3.61-.86,3.61-2.67,0-3.73-11.31-3.32-11.31-10,0-4,3.48-5.82,7.7-5.82,2.5,0,6.81.86,6.81,4v2h-3.57v-1c0-1.23-1.84-1.76-3.11-1.76-2.34,0-3.86.82-3.86,2.46,0,3.93,11.32,3.07,11.32,10,0,3.69-3.28,6.07-7.63,6.07a10.67,10.67,0,0,1-8.28-3.65Z"/><path class="cls-1" d="M638.39,234.18h-2.71V231h2.79v-5.7h3.89V231h5v3.2h-5v9.51c0,4.14,2.87,4.67,4.39,4.67a4.9,4.9,0,0,0,.94-.08v3.53a10.29,10.29,0,0,1-1.39.08c-2.63,0-7.91-.82-7.91-7.75Z"/><path class="cls-1" d="M660.69,230.49c5.82,0,8.94,4.34,8.94,9.71,0,.54-.13,1.64-.13,1.64H654.38a6.94,6.94,0,0,0,7.13,6.93,9.54,9.54,0,0,0,6.07-2.42l1.72,2.83a12.11,12.11,0,0,1-8,3,10.57,10.57,0,0,1-11-10.87C650.28,234.75,654.79,230.49,660.69,230.49Zm4.84,8.44c-.13-3.44-2.3-5.29-4.88-5.29a6,6,0,0,0-6.11,5.29Z"/><path class="cls-1" d="M674.92,235.28a.81.81,0,0,0-.91-.9h-1.68V231h3.77c1.81,0,2.67.74,2.67,2.42v1.31a12.49,12.49,0,0,1-.08,1.44h.08c1-3,3.36-5.42,6.56-5.42a7.49,7.49,0,0,1,1.07.09v3.93a6.13,6.13,0,0,0-1.19-.12c-2.55,0-4.88,1.8-5.82,4.88a12.58,12.58,0,0,0-.5,3.73v8.49h-4Z"/><path class="cls-1" d="M691.07,235.28a.8.8,0,0,0-.9-.9h-1.68V231h3.81c1.76,0,2.62.78,2.62,2.3v.77a8.89,8.89,0,0,1-.08,1.19h.08a8.45,8.45,0,0,1,7.79-4.75c4.92,0,7.14,2.66,7.14,7.95v9a.8.8,0,0,0,.9.9h1.68v3.41h-3.94c-1.84,0-2.62-.78-2.62-2.63v-9.76c0-2.91-.57-5.2-3.89-5.2a6.71,6.71,0,0,0-6.56,5.08,8.42,8.42,0,0,0-.37,2.79v9.72h-4Z"/><path class="cls-1" d="M716.73,235.28a.8.8,0,0,0-.9-.9h-1.68V231h3.73c1.85,0,2.55.78,2.55,2.09,0,.62,0,1.11,0,1.11h.09s1.72-3.69,6.88-3.69c5.58,0,9.15,4.43,9.15,10.86,0,6.6-4,10.87-9.43,10.87a7.18,7.18,0,0,1-6.36-3.32h-.08s.08.73.08,1.8v9.23h-4Zm9.72,13.53c3.28,0,6-2.7,6-7.42,0-4.51-2.42-7.42-5.87-7.42-3.07,0-6,2.18-6,7.46C720.59,245.12,722.6,248.81,726.45,248.81Z"/><path class="cls-1" d="M750.64,230.49c6.19,0,11.19,4.55,11.19,10.82a11.17,11.17,0,0,1-22.34,0C739.49,235,744.45,230.49,750.64,230.49Zm0,18.28a7.43,7.43,0,1,0-7.09-7.46A7.17,7.17,0,0,0,750.64,248.77Z"/><path class="cls-1" d="M766.8,235.28a.81.81,0,0,0-.91-.9h-1.68V231H768c1.81,0,2.67.74,2.67,2.42v1.31a12.49,12.49,0,0,1-.08,1.44h.08c1-3,3.36-5.42,6.56-5.42a7.49,7.49,0,0,1,1.07.09v3.93a6.13,6.13,0,0,0-1.19-.12c-2.55,0-4.88,1.8-5.83,4.88a12.58,12.58,0,0,0-.49,3.73v8.49h-4Z"/><path class="cls-1" d="M782.83,234.18h-2.71V231h2.79v-5.7h3.89V231h5v3.2h-5v9.51c0,4.14,2.87,4.67,4.39,4.67a4.9,4.9,0,0,0,.94-.08v3.53a10.29,10.29,0,0,1-1.39.08c-2.63,0-7.91-.82-7.91-7.75Z"/><path class="cls-1" d="M801.07,247.42l-3.48,8.45h-3.08l2.54-8.45Z"/><path class="cls-1" d="M816,227.21a1.17,1.17,0,0,0-1.35-.9H814v-3.53h2.29c2,0,2.75.45,3.41,2.38L826.08,243c.53,1.56,1.11,4,1.11,4h.08a37.1,37.1,0,0,1,1.11-4l6.35-17.83c.7-1.93,1.35-2.38,3.4-2.38h2.3v3.53h-.57c-.74,0-1.11.16-1.36.9l-9.1,24.52h-4.34Z"/><path class="cls-1" d="M844.61,235.28a.8.8,0,0,0-.9-.9H842V231h3.89c1.85,0,2.63.78,2.63,2.62v13.82a.8.8,0,0,0,.9.9h1.68v3.41h-3.89c-1.85,0-2.63-.78-2.63-2.63Zm.08-12.5h3.57v4.14h-3.57Z"/><path class="cls-1" d="M864.82,230.49c2.51,0,7.47,1,7.47,4.55v2.13h-3.61V236c0-1.47-2.34-2.13-3.86-2.13-4.05,0-7.09,3-7.09,7.42a7.06,7.06,0,0,0,7.3,7.38,9.33,9.33,0,0,0,6.44-2.87l1.72,2.83a11.42,11.42,0,0,1-8.45,3.57c-6.52,0-11.07-4.64-11.07-10.87S858.14,230.49,864.82,230.49Z"/><path class="cls-1" d="M877.7,234.18H875V231h2.79v-5.7h3.9V231h5v3.2h-5v9.51c0,4.14,2.87,4.67,4.38,4.67a5,5,0,0,0,1-.08v3.53a10.56,10.56,0,0,1-1.4.08c-2.62,0-7.91-.82-7.91-7.75Z"/><path class="cls-1" d="M900.74,230.49c6.19,0,11.19,4.55,11.19,10.82a11.17,11.17,0,0,1-22.34,0C889.59,235,894.55,230.49,900.74,230.49Zm0,18.28a7.43,7.43,0,1,0-7.09-7.46A7.17,7.17,0,0,0,900.74,248.77Z"/><path class="cls-1" d="M916.89,235.28a.8.8,0,0,0-.9-.9h-1.68V231h3.77c1.81,0,2.67.74,2.67,2.42v1.31a12.49,12.49,0,0,1-.08,1.44h.08c1-3,3.36-5.42,6.56-5.42a7.49,7.49,0,0,1,1.07.09v3.93a6.13,6.13,0,0,0-1.19-.12c-2.55,0-4.88,1.8-5.83,4.88a12.58,12.58,0,0,0-.49,3.73v8.49h-4Z"/><path class="cls-1" d="M933,235.28a.81.81,0,0,0-.91-.9h-1.68V231h3.9c1.84,0,2.62.78,2.62,2.62v13.82a.8.8,0,0,0,.9.9h1.68v3.41h-3.89c-1.84,0-2.62-.78-2.62-2.63Zm.08-12.5h3.57v4.14h-3.57Z"/><path class="cls-1" d="M954.57,238.81h.91v-.2c0-3.65-1.36-5-4.6-5-1,0-3.4.25-3.4,1.6v1.19h-3.73v-2.05c0-3.4,5.17-3.89,7.17-3.89,6.73,0,8.53,3.52,8.53,8.12v8.81a.8.8,0,0,0,.9.9H962v3.41H958.3c-1.84,0-2.58-.91-2.58-2.38a9.15,9.15,0,0,1,.08-1.23h-.08a7.09,7.09,0,0,1-6.6,4.1c-3.57,0-7-2.18-7-6.32C942.07,239.22,951.09,238.81,954.57,238.81ZM950,249c3.36,0,5.54-3.53,5.54-6.6v-.7h-1c-3,0-8.4.17-8.4,4C946.09,247.38,947.36,249,950,249Z"/>
</svg>